
        <svg xmlns="http://www.w3.org/2000/svg" xmlns:xlink="http://www.w3.org/1999/xlink" version="1.1" width="3159.9237954642285" 
        height="1042.4893726053397" viewBox="0 -58.29222344671136 3159.9237954642285 1042.4893726053397">
			
			<g transform="scale(7.996189773211435) translate(10, 10)">
				<defs id="SvgjsDefs1818"></defs><g id="SvgjsG1819" featureKey="nYIUkx-0" transform="matrix(0.13845128939737966,0,0,0.13845128939737966,-7.983326845472343,-26.661001208320474)" fill="#c12f2f"><g xmlns="http://www.w3.org/2000/svg"><g><g><path d="M72.3,225.1c10.7,10.7,21.4,21.4,32,32c25.6,25.6,51.3,51.3,76.9,76.9c31,31,62.1,62.1,93.1,93.1     c26.8,26.8,53.7,53.7,80.5,80.5c13,13,25.9,26.3,39.1,39.1c0.2,0.2,0.4,0.4,0.6,0.6c0-23.6,0-47.1,0-70.7     c-10.7,10.7-21.4,21.4-32,32c-25.6,25.6-51.3,51.3-76.9,76.9c-31,31-62.1,62.1-93.1,93.1c-26.8,26.8-53.7,53.7-80.5,80.5     c-13,13-26.3,25.9-39.1,39.1c-0.2,0.2-0.4,0.4-0.6,0.6c-9.1,9.1-14.6,22.5-14.6,35.4c0,12.3,5.4,26.9,14.6,35.4     c9.5,8.7,22,15.2,35.4,14.6c13.3-0.6,25.8-5.1,35.4-14.6c10.7-10.7,21.4-21.4,32-32c25.6-25.6,51.3-51.3,76.9-76.9     c31-31,62.1-62.1,93.1-93.1c26.8-26.8,53.7-53.7,80.5-80.5c13-13,26.3-25.9,39.1-39.1c0.2-0.2,0.4-0.4,0.6-0.6     c19.1-19.1,19.1-51.6,0-70.7c-10.7-10.7-21.4-21.4-32-32c-25.6-25.6-51.3-51.3-76.9-76.9c-31-31-62.1-62.1-93.1-93.1     c-26.8-26.8-53.7-53.7-80.5-80.5c-13-13-25.9-26.3-39.1-39.1c-0.2-0.2-0.4-0.4-0.6-0.6c-9.1-9.1-22.5-14.6-35.4-14.6     c-12.3,0-26.9,5.4-35.4,14.6c-8.7,9.5-15.2,22-14.6,35.4C58.3,203,62.8,215.5,72.3,225.1L72.3,225.1z"></path></g></g><g><g><path d="M407.5,884.3c16.8,0,33.7,0,50.5,0c40.6,0,81.2,0,121.8,0c49,0,97.9,0,146.9,0c42.3,0,84.6,0,127,0     c20.6,0,41.2,0.3,61.8,0c0.3,0,0.6,0,0.9,0c12.8,0,26.3-5.6,35.4-14.6c8.7-8.7,15.2-22.9,14.6-35.4c-0.6-12.9-4.8-26.3-14.6-35.4     c-9.8-9-21.8-14.6-35.4-14.6c-16.8,0-33.7,0-50.5,0c-40.6,0-81.2,0-121.8,0c-49,0-97.9,0-146.9,0c-42.3,0-84.6,0-127,0     c-20.6,0-41.2-0.3-61.8,0c-0.3,0-0.6,0-0.9,0c-12.8,0-26.3,5.6-35.4,14.6c-8.7,8.7-15.2,22.9-14.6,35.4     c0.6,12.9,4.8,26.3,14.6,35.4C381.9,878.6,394,884.3,407.5,884.3L407.5,884.3z"></path></g></g></g></g><g id="SvgjsG1820" featureKey="PXhRQw-0" transform="matrix(2.7966394116149185,0,0,2.7966394116149185,147.25250676232747,5.003224485862555)" fill="#016565"><path d="M4.18 5.720000000000001 l0 7.66 l3.58 -3.72 l3.36 0 l-3.9 3.8 l4.34 6.54 l-3.44 0 l-2.84 -4.62 l-1.1 1.06 l0 3.56 l-2.84 0 l0 -14.28 l2.84 0 z M15.66 5.720000000000001 l0 7.66 l3.58 -3.72 l3.36 0 l-3.9 3.8 l4.34 6.54 l-3.44 0 l-2.84 -4.62 l-1.1 1.06 l0 3.56 l-2.84 0 l0 -14.28 l2.84 0 z M28.82 9.38 c0.97334 0 1.84 0.22664 2.6 0.67998 s1.3567 1.11 1.79 1.97 s0.65 1.85 0.65 2.97 c0 0.10666 -0.0066602 0.28 -0.02 0.52 l-7.46 0 c0.02666 0.82666 0.24332 1.47 0.64998 1.93 s1.03 0.69 1.87 0.69 c0.52 0 0.99666 -0.13 1.43 -0.39 s0.71 -0.57666 0.83 -0.95 l2.5 0 c-0.73334 2.32 -2.3466 3.48 -4.84 3.48 c-0.94666 -0.01334 -1.8233 -0.22 -2.63 -0.62 s-1.45 -1.0233 -1.93 -1.87 s-0.72 -1.83 -0.72 -2.95 c0 -1.0533 0.24334 -2.0134 0.73 -2.88 s1.1333 -1.5133 1.94 -1.94 s1.6767 -0.64 2.61 -0.64 z M31 13.719999999999999 c-0.13334 -0.77334 -0.38 -1.3333 -0.74 -1.68 s-0.87334 -0.52 -1.54 -0.52 c-0.69334 0 -1.24 0.19666 -1.64 0.59 s-0.63334 0.93 -0.7 1.61 l4.62 0 z M38.36 9.66 l0 5.86 c0 0.8 0.12666 1.42 0.38 1.86 s0.73334 0.66 1.44 0.66 c0.78666 0 1.35 -0.23334 1.69 -0.7 s0.51 -1.2133 0.51 -2.24 l0 -5.44 l2.84 0 l0 10.34 l-2.7 0 l0 -1.44 l-0.06 0 c-0.70666 1.1467 -1.7667 1.72 -3.18 1.72 c-1.3467 0 -2.31 -0.34334 -2.89 -1.03 s-0.87 -1.7433 -0.87 -3.17 l0 -6.42 l2.84 0 z M50.3 5.720000000000001 l0 14.28 l-2.84 0 l0 -14.28 l2.84 0 z M58.49999999999999 9.38 c1.5067 0 2.5134 0.57332 3.02 1.72 c0.78666 -1.1467 1.8333 -1.72 3.14 -1.72 c1.2933 0 2.2434 0.32666 2.85 0.98 s0.91 1.5533 0.91 2.7 l0 6.94 l-2.84 0 l0 -5.98 c0 -0.90666 -0.13666 -1.5333 -0.41 -1.88 s-0.71668 -0.52 -1.33 -0.52 c-1.2667 0 -1.9 0.86666 -1.9 2.6 l0 5.78 l-2.84 0 l0 -6.1 c0 -0.88 -0.14 -1.48 -0.42 -1.8 s-0.71334 -0.48 -1.3 -0.48 c-0.54666 0 -1.0033 0.21666 -1.37 0.65 s-0.55 1.0033 -0.55 1.71 l0 6.02 l-2.84 0 l0 -10.34 l2.68 0 l0 1.4 l0.04 0 c0.78666 -1.12 1.84 -1.68 3.16 -1.68 z M73.58 5.720000000000001 l0 2.34 l-2.84 0 l0 -2.34 l2.84 0 z M73.58 9.66 l0 10.34 l-2.84 0 l0 -10.34 l2.84 0 z M79.41999999999999 6.5600000000000005 l0.000019531 3.1 l2.08 0 l0 1.9 l-2.08 0 l0 5.12 c0 0.48 0.08 0.8 0.24 0.96 s0.48 0.24 0.96 0.24 c0.34666 0 0.64 -0.02666 0.88 -0.08 l0 2.22 c-0.4 0.06666 -0.96 0.1 -1.68 0.1 c-1.0933 0 -1.9067 -0.18666 -2.44 -0.56 s-0.8 -1.02 -0.8 -1.94 l0 -6.06 l-1.72 0 l0 -1.9 l1.72 0 l0 -3.1 l2.84 0 z"></path></g><g id="SvgjsG1821" featureKey="mlRtrp-0" transform="matrix(0.7458652901773821,0,0,0.7458652901773821,153.43398135738218,67.34565102871201)" fill="#c12f2f"><path d="M2.0996 20 l0 -13.418 l3.623 0 l0 13.418 l-3.623 0 z M43.73421875 20 l0 -9.4238 l-4.9805 9.4238 l-3.4766 0 l-4.9805 -9.4238 l0 9.4238 l-3.623 0 l0 -13.418 l4.9219 0 l5.4199 10.156 l5.4199 -10.156 l4.9023 0 l0 13.418 l-3.6035 0 z M68.289053125 20 l0 -13.418 l3.623 0 l0 13.418 l-3.623 0 z M105.900671875 6.582000000000001 l3.4277 9.3164 l3.7109 -9.3164 l3.7598 0 l-5.3906 13.418 l-4.0234 0 l-3.5059 -9.0234 l-3.4961 9.0234 l-4.0234 0 l-5.4004 -13.418 l3.7695 0 l3.6328 9.1211 l3.5059 -9.1211 l4.0332 0 z M146.246234375 17.4609 l-7.4805 0 l-1.2598 2.5391 l-4.043 0 l7.0215 -13.418 l4.043 0 l7.0215 13.418 l-4.043 0 z M140.064434375 14.8437 l4.9023 0 l-2.4414 -4.9414 z M183.1734375 20 l-9.0527 -9.2188 l0 9.2188 l-3.623 0 l0 -13.418 l3.9355 0 l9.0625 9.2578 l0 -9.2578 l3.6035 0 l0 13.418 l-3.9258 0 z M211.673871875 20 l-3.623 0 l0 -13.418 l9.082 0 c0.97656 0 1.805 0.10091 2.4854 0.30273 s1.2337 0.48828 1.6602 0.85938 s0.73568 0.81868 0.92774 1.3428 s0.28809 1.1084 0.28809 1.7529 c0 0.56641 -0.079756 1.0612 -0.23926 1.4844 s-0.37435 0.78613 -0.64453 1.0889 s-0.58432 0.55827 -0.94239 0.7666 s-0.73568 0.38086 -1.1328 0.51758 l4.3945 5.3027 l-4.2383 0 l-4.0625 -4.9414 l-3.9551 0 l0 4.9414 z M218.832171875 10.8203 c0 -0.26042 -0.03418 -0.48174 -0.10254 -0.66403 s-0.18718 -0.33041 -0.35645 -0.44435 s-0.39551 -0.19694 -0.67871 -0.24902 s-0.6364 -0.078125 -1.0596 -0.078125 l-4.9609 0 l0 2.8711 l4.9609 0 c0.42317 0 0.77637 -0.026045 1.0596 -0.078125 s0.50944 -0.13509 0.67871 -0.24902 s0.28809 -0.26205 0.35645 -0.44435 s0.10254 -0.40365 0.10254 -0.66407 z M250.9164375 14.5215 l0 5.4785 l-3.6133 0 l0 -5.4785 l-6.5039 -7.9395 l4.0625 0 l4.2578 5.4004 l4.2383 -5.4004 l4.0625 0 z M293.644640625 13.300799999999999 c0 1.1523 -0.21159 2.1696 -0.63477 3.0518 s-1.0286 1.6194 -1.8164 2.2119 s-1.7432 1.04 -2.8662 1.3428 s-2.3845 0.4541 -3.7842 0.4541 s-2.6644 -0.15137 -3.7939 -0.4541 s-2.0915 -0.75032 -2.8857 -1.3428 s-1.4063 -1.3298 -1.8359 -2.2119 s-0.64453 -1.8994 -0.64453 -3.0518 s0.21484 -2.1696 0.64453 -3.0518 s1.0417 -1.6194 1.8359 -2.2119 s1.7562 -1.04 2.8857 -1.3428 s2.3942 -0.4541 3.7939 -0.4541 s2.6611 0.15137 3.7842 0.4541 s2.0784 0.75032 2.8662 1.3428 s1.3933 1.3298 1.8164 2.2119 s0.63477 1.8994 0.63477 3.0518 z M289.982640625 13.300799999999999 c0 -0.5013 -0.079756 -1.001 -0.23926 -1.499 s-0.44271 -0.94563 -0.84961 -1.3428 s-0.96191 -0.7194 -1.665 -0.9668 s-1.5983 -0.37109 -2.6855 -0.37109 c-0.72917 0 -1.3704 0.056963 -1.9238 0.1709 s-1.0319 0.27182 -1.4355 0.47364 s-0.74219 0.43783 -1.0156 0.70802 s-0.49153 0.5599 -0.6543 0.86915 s-0.27832 0.63151 -0.34668 0.9668 s-0.10254 0.66568 -0.10254 0.99121 c0 0.33203 0.03418 0.66731 0.10254 1.0059 s0.18392 0.66244 0.34668 0.97169 s0.38086 0.59733 0.6543 0.86426 s0.61198 0.49967 1.0156 0.69823 s0.88216 0.35481 1.4355 0.46875 s1.1946 0.1709 1.9238 0.1709 c1.0872 0 1.9824 -0.1237 2.6855 -0.37109 s1.2581 -0.56966 1.665 -0.9668 s0.69011 -0.84473 0.84961 -1.3428 s0.23926 -0.99775 0.23926 -1.499 z"></path></g>
			</g>
		</svg>
	